{
.appVersion = "895";
copyright = "SIL OPEN FONT LICENSE Version 1.1";
date = "2017-04-19 14:51:12 +0000";
designer = "Trevor Bullock";
familyName = "KA New Stathis Combo";
fontMaster = (
{
ascender = 800;
capHeight = 700;
descender = -200;
id = "88CA81B2-7675-4395-A8ED-15857F341A98";
xHeight = 500;
}
);
glyphs = (
{
glyphname = C;
lastChange = "2019-02-20 04:52:23 +0000";
layers = (
{
layerId = "88CA81B2-7675-4395-A8ED-15857F341A98";
paths = (
{
closed = 1;
nodes = (
"619 203 OFFCURVE",
"617 204 OFFCURVE",
"631 218 CURVE SMOOTH",
"656 243 OFFCURVE",
"659 261 OFFCURVE",
"643 279 CURVE SMOOTH",
"618 308 OFFCURVE",
"557 323 OFFCURVE",
"406 348 CURVE SMOOTH",
"358 356 OFFCURVE",
"304 359 OFFCURVE",
"339 378 CURVE SMOOTH",
"394 408 OFFCURVE",
"551 389 OFFCURVE",
"648 358 CURVE SMOOTH",
"728 332 OFFCURVE",
"779 287 OFFCURVE",
"787 237 CURVE SMOOTH",
"791 212 OFFCURVE",
"783 191 OFFCURVE",
"767 183 CURVE SMOOTH",
"753 176 OFFCURVE",
"736 178 OFFCURVE",
"679 190 CURVE SMOOTH"
);
},
{
closed = 1;
nodes = (
"981 219 OFFCURVE",
"917 228 OFFCURVE",
"874 234 CURVE SMOOTH",
"786 246 OFFCURVE",
"849 258 OFFCURVE",
"793 327 CURVE SMOOTH",
"771 354 OFFCURVE",
"755 365 OFFCURVE",
"694 394 CURVE SMOOTH",
"598 440 OFFCURVE",
"497 463 OFFCURVE",
"401 463 CURVE SMOOTH",
"342 463 OFFCURVE",
"260 453 OFFCURVE",
"242 403 CURVE SMOOTH",
"228 365 OFFCURVE",
"260 341 OFFCURVE",
"308 310 CURVE SMOOTH",
"347 285 OFFCURVE",
"272 291 OFFCURVE",
"211 304 CURVE SMOOTH",
"154 316 OFFCURVE",
"117 321 OFFCURVE",
"84 372 CURVE SMOOTH",
"73 389 OFFCURVE",
"70 402 OFFCURVE",
"70 429 CURVE SMOOTH",
"70 543 OFFCURVE",
"283 540 OFFCURVE",
"447 515 CURVE SMOOTH",
"645 485 OFFCURVE",
"877 404 OFFCURVE",
"994 283 CURVE SMOOTH",
"1028 248 OFFCURVE",
"1033 228 OFFCURVE",
"1005 223 CURVE SMOOTH"
);
},
{
closed = 1;
nodes = (
"1294 -6 OFFCURVE",
"1144 9 OFFCURVE",
"1080 12 CURVE SMOOTH",
"938 23 OFFCURVE",
"326 -22 OFFCURVE",
"137 28 CURVE SMOOTH",
"117 33 OFFCURVE",
"87 52 OFFCURVE",
"51 83 CURVE SMOOTH",
"31 100 OFFCURVE",
"30 103 OFFCURVE",
"30 114 CURVE SMOOTH",
"30 129 OFFCURVE",
"43 125 OFFCURVE",
"82 117 CURVE SMOOTH",
"97 114 OFFCURVE",
"127 107 OFFCURVE",
"148 106 CURVE SMOOTH",
"199 104 OFFCURVE",
"573 101 OFFCURVE",
"654 104 CURVE SMOOTH",
"733 107 OFFCURVE",
"1051 112 OFFCURVE",
"1080 106 CURVE SMOOTH",
"1142 94 OFFCURVE",
"1241 63 OFFCURVE",
"1292 35 CURVE SMOOTH",
"1305 28 OFFCURVE",
"1314 22 OFFCURVE",
"1317 12 CURVE SMOOTH",
"1323 -7 OFFCURVE",
"1321 -6 OFFCURVE",
"1307 -6 CURVE SMOOTH"
);
}
);
width = 1351;
}
);
unicode = 0043;
},
{
glyphname = V;
lastChange = "2019-02-20 04:52:23 +0000";
layers = (
{
layerId = "88CA81B2-7675-4395-A8ED-15857F341A98";
paths = (
{
closed = 1;
nodes = (
"518 190 OFFCURVE",
"517 195 OFFCURVE",
"517 199 CURVE SMOOTH",
"517 203 OFFCURVE",
"547 243 OFFCURVE",
"547 247 CURVE SMOOTH",
"547 248 OFFCURVE",
"538 248 OFFCURVE",
"518 248 CURVE SMOOTH",
"475 248 OFFCURVE",
"391 257 OFFCURVE",
"355 265 CURVE SMOOTH",
"299 277 OFFCURVE",
"254 296 OFFCURVE",
"217 326 CURVE SMOOTH",
"185 352 OFFCURVE",
"170 375 OFFCURVE",
"149 420 CURVE SMOOTH",
"132 457 OFFCURVE",
"85 599 OFFCURVE",
"90 605 CURVE SMOOTH",
"94 610 OFFCURVE",
"110 606 OFFCURVE",
"136 604 CURVE SMOOTH",
"176 601 OFFCURVE",
"184 601 OFFCURVE",
"199 591 CURVE SMOOTH",
"225 574 OFFCURVE",
"238 545 OFFCURVE",
"249 498 CURVE SMOOTH",
"263 439 OFFCURVE",
"295 391 OFFCURVE",
"322 362 CURVE SMOOTH",
"360 321 OFFCURVE",
"409 310 OFFCURVE",
"478 301 CURVE SMOOTH",
"502 298 OFFCURVE",
"542 295 OFFCURVE",
"562 295 CURVE SMOOTH",
"565 295 OFFCURVE",
"573 295 OFFCURVE",
"574 296 CURVE SMOOTH",
"575 297 OFFCURVE",
"599 343 OFFCURVE",
"604 350 CURVE SMOOTH",
"611 360 OFFCURVE",
"605 358 OFFCURVE",
"644 359 CURVE SMOOTH",
"689 360 OFFCURVE",
"714 360 OFFCURVE",
"716 358 CURVE SMOOTH",
"719 355 OFFCURVE",
"710 333 OFFCURVE",
"708 329 CURVE SMOOTH",
"700 313 OFFCURVE",
"694 298 OFFCURVE",
"694 296 CURVE SMOOTH",
"694 293 OFFCURVE",
"713 290 OFFCURVE",
"860 290 CURVE SMOOTH",
"904 290 OFFCURVE",
"984 292 OFFCURVE",
"992 288 CURVE SMOOTH",
"994 287 OFFCURVE",
"988 276 OFFCURVE",
"982 271 CURVE SMOOTH",
"968 259 OFFCURVE",
"941 256 OFFCURVE",
"896 253 CURVE SMOOTH",
"840 249 OFFCURVE",
"724 245 OFFCURVE",
"682 245 CURVE SMOOTH",
"679 245 OFFCURVE",
"673 245 OFFCURVE",
"673 244 CURVE SMOOTH",
"673 243 OFFCURVE",
"652 216 OFFCURVE",
"642 208 CURVE SMOOTH",
"621 191 OFFCURVE",
"607 190 OFFCURVE",
"559 190 CURVE SMOOTH",
"540 190 OFFCURVE",
"523 190 OFFCURVE",
"522 190 CURVE SMOOTH"
);
},
{
closed = 1;
nodes = (
"1294 -6 OFFCURVE",
"1144 9 OFFCURVE",
"1080 12 CURVE SMOOTH",
"938 23 OFFCURVE",
"326 -22 OFFCURVE",
"137 28 CURVE SMOOTH",
"117 33 OFFCURVE",
"87 52 OFFCURVE",
"51 83 CURVE SMOOTH",
"31 100 OFFCURVE",
"30 103 OFFCURVE",
"30 114 CURVE SMOOTH",
"30 129 OFFCURVE",
"43 125 OFFCURVE",
"82 117 CURVE SMOOTH",
"97 114 OFFCURVE",
"127 107 OFFCURVE",
"148 106 CURVE SMOOTH",
"199 104 OFFCURVE",
"573 101 OFFCURVE",
"654 104 CURVE SMOOTH",
"733 107 OFFCURVE",
"1051 112 OFFCURVE",
"1080 106 CURVE SMOOTH",
"1142 94 OFFCURVE",
"1241 63 OFFCURVE",
"1292 35 CURVE SMOOTH",
"1305 28 OFFCURVE",
"1314 22 OFFCURVE",
"1317 12 CURVE SMOOTH",
"1323 -7 OFFCURVE",
"1321 -6 OFFCURVE",
"1307 -6 CURVE SMOOTH"
);
}
);
width = 1351;
}
);
unicode = 0056;
},
{
glyphname = X;
lastChange = "2019-02-20 04:52:23 +0000";
layers = (
{
layerId = "88CA81B2-7675-4395-A8ED-15857F341A98";
paths = (
{
closed = 1;
nodes = (
"612 217 OFFCURVE",
"587 215 OFFCURVE",
"587 230 CURVE SMOOTH",
"587 241 OFFCURVE",
"613 256 OFFCURVE",
"627 272 CURVE SMOOTH",
"652 300 OFFCURVE",
"618 337 OFFCURVE",
"549 361 CURVE SMOOTH",
"481 387 OFFCURVE",
"353 410 OFFCURVE",
"266 415 CURVE SMOOTH",
"216 418 OFFCURVE",
"130 424 OFFCURVE",
"122 427 CURVE SMOOTH",
"114 430 OFFCURVE",
"111 436 OFFCURVE",
"114 441 CURVE SMOOTH",
"124 456 OFFCURVE",
"179 467 OFFCURVE",
"257 470 CURVE SMOOTH",
"361 476 OFFCURVE",
"478 456 OFFCURVE",
"606 424 CURVE SMOOTH",
"743 390 OFFCURVE",
"830 340 OFFCURVE",
"843 273 CURVE SMOOTH",
"848 247 OFFCURVE",
"844 221 OFFCURVE",
"827 207 CURVE SMOOTH",
"803 188 OFFCURVE",
"784 186 OFFCURVE",
"671 205 CURVE SMOOTH"
);
},
{
closed = 1;
nodes = (
"1294 -6 OFFCURVE",
"1144 9 OFFCURVE",
"1080 12 CURVE SMOOTH",
"938 23 OFFCURVE",
"326 -22 OFFCURVE",
"137 28 CURVE SMOOTH",
"117 33 OFFCURVE",
"87 52 OFFCURVE",
"51 83 CURVE SMOOTH",
"31 100 OFFCURVE",
"30 103 OFFCURVE",
"30 114 CURVE SMOOTH",
"30 129 OFFCURVE",
"43 125 OFFCURVE",
"82 117 CURVE SMOOTH",
"97 114 OFFCURVE",
"127 107 OFFCURVE",
"148 106 CURVE SMOOTH",
"199 104 OFFCURVE",
"573 101 OFFCURVE",
"654 104 CURVE SMOOTH",
"733 107 OFFCURVE",
"1051 112 OFFCURVE",
"1080 106 CURVE SMOOTH",
"1142 94 OFFCURVE",
"1241 63 OFFCURVE",
"1292 35 CURVE SMOOTH",
"1305 28 OFFCURVE",
"1314 22 OFFCURVE",
"1317 12 CURVE SMOOTH",
"1323 -7 OFFCURVE",
"1321 -6 OFFCURVE",
"1307 -6 CURVE SMOOTH"
);
}
);
width = 1351;
}
);
unicode = 0058;
},
{
glyphname = c;
lastChange = "2019-02-20 04:52:23 +0000";
layers = (
{
layerId = "88CA81B2-7675-4395-A8ED-15857F341A98";
paths = (
{
closed = 1;
nodes = (
"969 189 OFFCURVE",
"906 197 OFFCURVE",
"863 203 CURVE SMOOTH",
"775 217 OFFCURVE",
"838 227 OFFCURVE",
"782 296 CURVE SMOOTH",
"761 323 OFFCURVE",
"744 334 OFFCURVE",
"683 363 CURVE SMOOTH",
"587 408 OFFCURVE",
"486 432 OFFCURVE",
"390 432 CURVE SMOOTH",
"331 432 OFFCURVE",
"249 422 OFFCURVE",
"231 372 CURVE SMOOTH",
"218 334 OFFCURVE",
"249 310 OFFCURVE",
"297 279 CURVE SMOOTH",
"337 255 OFFCURVE",
"261 260 OFFCURVE",
"200 273 CURVE SMOOTH",
"143 286 OFFCURVE",
"107 290 OFFCURVE",
"73 341 CURVE SMOOTH",
"62 358 OFFCURVE",
"59 371 OFFCURVE",
"59 398 CURVE SMOOTH",
"59 512 OFFCURVE",
"272 509 OFFCURVE",
"436 484 CURVE SMOOTH",
"634 456 OFFCURVE",
"867 373 OFFCURVE",
"983 252 CURVE SMOOTH",
"1019 217 OFFCURVE",
"1022 198 OFFCURVE",
"994 192 CURVE SMOOTH"
);
},
{
closed = 1;
nodes = (
"1294 -6 OFFCURVE",
"1144 9 OFFCURVE",
"1080 12 CURVE SMOOTH",
"938 23 OFFCURVE",
"326 -22 OFFCURVE",
"137 28 CURVE SMOOTH",
"117 33 OFFCURVE",
"87 52 OFFCURVE",
"51 83 CURVE SMOOTH",
"31 100 OFFCURVE",
"30 103 OFFCURVE",
"30 114 CURVE SMOOTH",
"30 129 OFFCURVE",
"43 125 OFFCURVE",
"82 117 CURVE SMOOTH",
"97 114 OFFCURVE",
"127 107 OFFCURVE",
"148 106 CURVE SMOOTH",
"199 104 OFFCURVE",
"573 101 OFFCURVE",
"654 104 CURVE SMOOTH",
"733 107 OFFCURVE",
"1051 112 OFFCURVE",
"1080 106 CURVE SMOOTH",
"1142 94 OFFCURVE",
"1241 63 OFFCURVE",
"1292 35 CURVE SMOOTH",
"1305 28 OFFCURVE",
"1314 22 OFFCURVE",
"1317 12 CURVE SMOOTH",
"1323 -7 OFFCURVE",
"1321 -6 OFFCURVE",
"1307 -6 CURVE SMOOTH"
);
}
);
width = 1351;
}
);
unicode = 0063;
},
{
glyphname = i;
lastChange = "2019-02-20 04:52:23 +0000";
layers = (
{
layerId = "88CA81B2-7675-4395-A8ED-15857F341A98";
paths = (
{
closed = 1;
nodes = (
"318 195 OFFCURVE",
"181 222 OFFCURVE",
"138 229 CURVE SMOOTH",
"101 235 OFFCURVE",
"36 241 OFFCURVE",
"30 245 CURVE SMOOTH",
"24 249 OFFCURVE",
"154 287 OFFCURVE",
"182 298 CURVE SMOOTH",
"285 339 OFFCURVE",
"328 373 OFFCURVE",
"389 462 CURVE SMOOTH",
"411 494 OFFCURVE",
"423 517 OFFCURVE",
"436 551 CURVE SMOOTH",
"463 621 OFFCURVE",
"480 663 OFFCURVE",
"523 672 CURVE SMOOTH",
"543 676 OFFCURVE",
"548 677 OFFCURVE",
"574 676 CURVE SMOOTH",
"597 675 OFFCURVE",
"632 668 OFFCURVE",
"632 654 CURVE SMOOTH",
"632 653 OFFCURVE",
"625 645 OFFCURVE",
"620 636 CURVE SMOOTH",
"609 616 OFFCURVE",
"584 568 OFFCURVE",
"570 535 CURVE SMOOTH",
"515 405 OFFCURVE",
"444 346 OFFCURVE",
"302 284 CURVE SMOOTH",
"238 256 OFFCURVE",
"205 257 OFFCURVE",
"238 245 CURVE SMOOTH",
"273 232 OFFCURVE",
"338 200 OFFCURVE",
"344 187 CURVE SMOOTH",
"345 185 OFFCURVE",
"344 185 OFFCURVE",
"334 189 CURVE SMOOTH"
);
},
{
closed = 1;
nodes = (
"1294 -6 OFFCURVE",
"1144 9 OFFCURVE",
"1080 12 CURVE SMOOTH",
"938 23 OFFCURVE",
"326 -22 OFFCURVE",
"137 28 CURVE SMOOTH",
"117 33 OFFCURVE",
"87 52 OFFCURVE",
"51 83 CURVE SMOOTH",
"31 100 OFFCURVE",
"30 103 OFFCURVE",
"30 114 CURVE SMOOTH",
"30 129 OFFCURVE",
"43 125 OFFCURVE",
"82 117 CURVE SMOOTH",
"97 114 OFFCURVE",
"127 107 OFFCURVE",
"148 106 CURVE SMOOTH",
"199 104 OFFCURVE",
"573 101 OFFCURVE",
"654 104 CURVE SMOOTH",
"733 107 OFFCURVE",
"1051 112 OFFCURVE",
"1080 106 CURVE SMOOTH",
"1142 94 OFFCURVE",
"1241 63 OFFCURVE",
"1292 35 CURVE SMOOTH",
"1305 28 OFFCURVE",
"1314 22 OFFCURVE",
"1317 12 CURVE SMOOTH",
"1323 -7 OFFCURVE",
"1321 -6 OFFCURVE",
"1307 -6 CURVE SMOOTH"
);
},
{
closed = 1;
nodes = (
"636 184 OFFCURVE",
"610 186 OFFCURVE",
"589 195 CURVE SMOOTH",
"566 205 OFFCURVE",
"548 230 OFFCURVE",
"534 269 CURVE SMOOTH",
"527 289 OFFCURVE",
"521 302 OFFCURVE",
"511 312 CURVE SMOOTH",
"501 322 OFFCURVE",
"498 330 OFFCURVE",
"501 338 CURVE SMOOTH",
"504 347 OFFCURVE",
"511 351 OFFCURVE",
"525 351 CURVE SMOOTH",
"556 351 OFFCURVE",
"600 349 OFFCURVE",
"606 347 CURVE SMOOTH",
"612 345 OFFCURVE",
"629 335 OFFCURVE",
"636 322 CURVE SMOOTH",
"637 320 OFFCURVE",
"642 312 OFFCURVE",
"648 299 CURVE SMOOTH",
"651 293 OFFCURVE",
"657 279 OFFCURVE",
"664 266 CURVE SMOOTH",
"678 241 OFFCURVE",
"683 235 OFFCURVE",
"700 233 CURVE SMOOTH",
"708 232 OFFCURVE",
"721 227 OFFCURVE",
"721 216 CURVE SMOOTH",
"721 208 OFFCURVE",
"717 202 OFFCURVE",
"698 193 CURVE SMOOTH",
"685 187 OFFCURVE",
"678 184 OFFCURVE",
"658 184 CURVE SMOOTH"
);
},
{
closed = 1;
nodes = (
"846 183 OFFCURVE",
"820 186 OFFCURVE",
"799 195 CURVE SMOOTH",
"776 205 OFFCURVE",
"758 230 OFFCURVE",
"744 269 CURVE SMOOTH",
"737 289 OFFCURVE",
"731 302 OFFCURVE",
"721 312 CURVE SMOOTH",
"711 322 OFFCURVE",
"708 330 OFFCURVE",
"711 338 CURVE SMOOTH",
"714 347 OFFCURVE",
"721 351 OFFCURVE",
"735 351 CURVE SMOOTH",
"766 351 OFFCURVE",
"810 349 OFFCURVE",
"816 347 CURVE SMOOTH",
"822 345 OFFCURVE",
"840 335 OFFCURVE",
"846 322 CURVE SMOOTH",
"847 320 OFFCURVE",
"852 312 OFFCURVE",
"858 299 CURVE SMOOTH",
"861 293 OFFCURVE",
"867 279 OFFCURVE",
"874 266 CURVE SMOOTH",
"888 241 OFFCURVE",
"893 235 OFFCURVE",
"910 233 CURVE SMOOTH",
"918 232 OFFCURVE",
"931 227 OFFCURVE",
"931 216 CURVE SMOOTH",
"931 208 OFFCURVE",
"926 202 OFFCURVE",
"908 193 CURVE SMOOTH",
"896 187 OFFCURVE",
"888 185 OFFCURVE",
"868 184 CURVE SMOOTH"
);
}
);
width = 1351;
}
);
unicode = 0069;
},
{
glyphname = s;
lastChange = "2019-02-20 04:52:23 +0000";
layers = (
{
layerId = "88CA81B2-7675-4395-A8ED-15857F341A98";
paths = (
{
closed = 1;
nodes = (
"-842 497 OFFCURVE",
"-929 536 CURVE SMOOTH",
"-958 549 OFFCURVE",
"-979 564 OFFCURVE",
"-979 573 CURVE SMOOTH",
"-979 576 OFFCURVE",
"-970 579 OFFCURVE",
"-963 579 CURVE SMOOTH",
"-958 579 OFFCURVE",
"-951 577 OFFCURVE",
"-932 568 CURVE SMOOTH",
"-865 534 OFFCURVE",
"-806 516 OFFCURVE",
"-746 516 CURVE SMOOTH",
"-718 516 OFFCURVE",
"-688 516 OFFCURVE",
"-684 532 CURVE SMOOTH",
"-683 535 OFFCURVE",
"-686 539 OFFCURVE",
"-696 550 CURVE SMOOTH",
"-712 568 OFFCURVE",
"-712 570 OFFCURVE",
"-703 576 CURVE SMOOTH",
"-698 579 OFFCURVE",
"-695 580 OFFCURVE",
"-681 579 CURVE SMOOTH",
"-653 577 OFFCURVE",
"-627 568 OFFCURVE",
"-605 551 CURVE SMOOTH",
"-594 542 OFFCURVE",
"-587 529 OFFCURVE",
"-601 510 CURVE SMOOTH",
"-609 498 OFFCURVE",
"-634 487 OFFCURVE",
"-664 482 CURVE SMOOTH",
"-740 470 OFFCURVE"
);
}
);
width = 0;
}
);
unicode = 0073;
},
{
glyphname = u;
lastChange = "2019-02-20 04:52:23 +0000";
layers = (
{
layerId = "88CA81B2-7675-4395-A8ED-15857F341A98";
paths = (
{
closed = 1;
nodes = (
"536 184 OFFCURVE",
"510 186 OFFCURVE",
"489 195 CURVE SMOOTH",
"466 205 OFFCURVE",
"448 230 OFFCURVE",
"434 269 CURVE SMOOTH",
"427 289 OFFCURVE",
"421 302 OFFCURVE",
"411 312 CURVE SMOOTH",
"401 322 OFFCURVE",
"398 330 OFFCURVE",
"401 338 CURVE SMOOTH",
"404 347 OFFCURVE",
"411 351 OFFCURVE",
"425 351 CURVE SMOOTH",
"456 351 OFFCURVE",
"500 349 OFFCURVE",
"506 347 CURVE SMOOTH",
"512 345 OFFCURVE",
"529 335 OFFCURVE",
"536 322 CURVE SMOOTH",
"537 320 OFFCURVE",
"542 312 OFFCURVE",
"548 299 CURVE SMOOTH",
"551 293 OFFCURVE",
"557 279 OFFCURVE",
"564 266 CURVE SMOOTH",
"578 241 OFFCURVE",
"583 235 OFFCURVE",
"600 233 CURVE SMOOTH",
"608 232 OFFCURVE",
"621 227 OFFCURVE",
"621 216 CURVE SMOOTH",
"621 208 OFFCURVE",
"617 202 OFFCURVE",
"598 193 CURVE SMOOTH",
"585 187 OFFCURVE",
"578 184 OFFCURVE",
"558 184 CURVE SMOOTH"
);
},
{
closed = 1;
nodes = (
"746 183 OFFCURVE",
"720 186 OFFCURVE",
"699 195 CURVE SMOOTH",
"676 205 OFFCURVE",
"658 230 OFFCURVE",
"644 269 CURVE SMOOTH",
"637 289 OFFCURVE",
"631 302 OFFCURVE",
"621 312 CURVE SMOOTH",
"611 322 OFFCURVE",
"608 330 OFFCURVE",
"611 338 CURVE SMOOTH",
"614 347 OFFCURVE",
"621 351 OFFCURVE",
"635 351 CURVE SMOOTH",
"666 351 OFFCURVE",
"710 349 OFFCURVE",
"716 347 CURVE SMOOTH",
"722 345 OFFCURVE",
"740 335 OFFCURVE",
"746 322 CURVE SMOOTH",
"747 320 OFFCURVE",
"752 312 OFFCURVE",
"758 299 CURVE SMOOTH",
"761 293 OFFCURVE",
"767 279 OFFCURVE",
"774 266 CURVE SMOOTH",
"788 241 OFFCURVE",
"793 235 OFFCURVE",
"810 233 CURVE SMOOTH",
"818 232 OFFCURVE",
"831 227 OFFCURVE",
"831 216 CURVE SMOOTH",
"831 208 OFFCURVE",
"826 202 OFFCURVE",
"808 193 CURVE SMOOTH",
"796 187 OFFCURVE",
"788 185 OFFCURVE",
"768 184 CURVE SMOOTH"
);
},
{
closed = 1;
nodes = (
"1186 176 OFFCURVE",
"1049 202 OFFCURVE",
"1006 209 CURVE SMOOTH",
"969 215 OFFCURVE",
"904 221 OFFCURVE",
"898 225 CURVE SMOOTH",
"892 229 OFFCURVE",
"1022 267 OFFCURVE",
"1050 278 CURVE SMOOTH",
"1153 319 OFFCURVE",
"1196 353 OFFCURVE",
"1257 442 CURVE SMOOTH",
"1278 475 OFFCURVE",
"1291 497 OFFCURVE",
"1304 531 CURVE SMOOTH",
"1332 600 OFFCURVE",
"1348 643 OFFCURVE",
"1391 652 CURVE SMOOTH",
"1411 656 OFFCURVE",
"1416 657 OFFCURVE",
"1442 656 CURVE SMOOTH",
"1465 655 OFFCURVE",
"1500 648 OFFCURVE",
"1500 634 CURVE SMOOTH",
"1500 633 OFFCURVE",
"1493 625 OFFCURVE",
"1488 616 CURVE SMOOTH",
"1477 596 OFFCURVE",
"1452 548 OFFCURVE",
"1438 515 CURVE SMOOTH",
"1384 384 OFFCURVE",
"1312 326 OFFCURVE",
"1170 264 CURVE SMOOTH",
"1107 234 OFFCURVE",
"1073 237 OFFCURVE",
"1106 225 CURVE SMOOTH",
"1141 213 OFFCURVE",
"1206 180 OFFCURVE",
"1212 167 CURVE SMOOTH",
"1213 165 OFFCURVE",
"1212 165 OFFCURVE",
"1202 169 CURVE SMOOTH"
);
},
{
closed = 1;
nodes = (
"1294 -6 OFFCURVE",
"1144 9 OFFCURVE",
"1080 12 CURVE SMOOTH",
"938 23 OFFCURVE",
"326 -22 OFFCURVE",
"137 28 CURVE SMOOTH",
"117 33 OFFCURVE",
"87 52 OFFCURVE",
"51 83 CURVE SMOOTH",
"31 100 OFFCURVE",
"30 103 OFFCURVE",
"30 114 CURVE SMOOTH",
"30 129 OFFCURVE",
"43 125 OFFCURVE",
"82 117 CURVE SMOOTH",
"97 114 OFFCURVE",
"127 107 OFFCURVE",
"148 106 CURVE SMOOTH",
"199 104 OFFCURVE",
"573 101 OFFCURVE",
"654 104 CURVE SMOOTH",
"733 107 OFFCURVE",
"1051 112 OFFCURVE",
"1080 106 CURVE SMOOTH",
"1142 94 OFFCURVE",
"1241 63 OFFCURVE",
"1292 35 CURVE SMOOTH",
"1305 28 OFFCURVE",
"1314 22 OFFCURVE",
"1317 12 CURVE SMOOTH",
"1323 -7 OFFCURVE",
"1321 -6 OFFCURVE",
"1307 -6 CURVE SMOOTH"
);
}
);
width = 1350;
}
);
unicode = 0075;
},
{
glyphname = v;
lastChange = "2019-02-20 04:52:23 +0000";
layers = (
{
layerId = "88CA81B2-7675-4395-A8ED-15857F341A98";
paths = (
{
closed = 1;
nodes = (
"1294 -6 OFFCURVE",
"1144 9 OFFCURVE",
"1080 12 CURVE SMOOTH",
"938 23 OFFCURVE",
"326 -22 OFFCURVE",
"137 28 CURVE SMOOTH",
"117 33 OFFCURVE",
"87 52 OFFCURVE",
"51 83 CURVE SMOOTH",
"31 100 OFFCURVE",
"30 103 OFFCURVE",
"30 114 CURVE SMOOTH",
"30 129 OFFCURVE",
"43 125 OFFCURVE",
"82 117 CURVE SMOOTH",
"97 114 OFFCURVE",
"127 107 OFFCURVE",
"148 106 CURVE SMOOTH",
"199 104 OFFCURVE",
"573 101 OFFCURVE",
"654 104 CURVE SMOOTH",
"733 107 OFFCURVE",
"1051 112 OFFCURVE",
"1080 106 CURVE SMOOTH",
"1142 94 OFFCURVE",
"1241 63 OFFCURVE",
"1292 35 CURVE SMOOTH",
"1305 28 OFFCURVE",
"1314 22 OFFCURVE",
"1317 12 CURVE SMOOTH",
"1323 -7 OFFCURVE",
"1321 -6 OFFCURVE",
"1307 -6 CURVE SMOOTH"
);
},
{
closed = 1;
nodes = (
"516 205 OFFCURVE",
"508 224 OFFCURVE",
"553 260 CURVE SMOOTH",
"563 268 OFFCURVE",
"568 279 OFFCURVE",
"573 301 CURVE SMOOTH",
"581 336 OFFCURVE",
"584 352 OFFCURVE",
"592 367 CURVE SMOOTH",
"603 388 OFFCURVE",
"611 396 OFFCURVE",
"628 403 CURVE SMOOTH",
"642 409 OFFCURVE",
"643 409 OFFCURVE",
"672 409 CURVE SMOOTH",
"693 409 OFFCURVE",
"745 407 OFFCURVE",
"758 398 CURVE SMOOTH",
"767 392 OFFCURVE",
"764 381 OFFCURVE",
"749 362 CURVE SMOOTH",
"738 348 OFFCURVE",
"730 328 OFFCURVE",
"722 298 CURVE SMOOTH",
"712 262 OFFCURVE",
"707 241 OFFCURVE",
"682 222 CURVE SMOOTH",
"651 198 OFFCURVE",
"618 195 OFFCURVE",
"577 199 CURVE SMOOTH"
);
}
);
width = 1351;
}
);
unicode = 0076;
},
{
glyphname = x;
lastChange = "2019-02-20 04:52:23 +0000";
layers = (
{
layerId = "88CA81B2-7675-4395-A8ED-15857F341A98";
paths = (
{
closed = 1;
nodes = (
"1294 -6 OFFCURVE",
"1144 9 OFFCURVE",
"1080 12 CURVE SMOOTH",
"938 23 OFFCURVE",
"326 -22 OFFCURVE",
"137 28 CURVE SMOOTH",
"117 33 OFFCURVE",
"87 52 OFFCURVE",
"51 83 CURVE SMOOTH",
"31 100 OFFCURVE",
"30 103 OFFCURVE",
"30 114 CURVE SMOOTH",
"30 129 OFFCURVE",
"43 125 OFFCURVE",
"82 117 CURVE SMOOTH",
"97 114 OFFCURVE",
"127 107 OFFCURVE",
"148 106 CURVE SMOOTH",
"199 104 OFFCURVE",
"573 101 OFFCURVE",
"654 104 CURVE SMOOTH",
"733 107 OFFCURVE",
"1051 112 OFFCURVE",
"1080 106 CURVE SMOOTH",
"1142 94 OFFCURVE",
"1241 63 OFFCURVE",
"1292 35 CURVE SMOOTH",
"1305 28 OFFCURVE",
"1314 22 OFFCURVE",
"1317 12 CURVE SMOOTH",
"1323 -7 OFFCURVE",
"1321 -6 OFFCURVE",
"1307 -6 CURVE SMOOTH"
);
},
{
closed = 1;
nodes = (
"1040 239 OFFCURVE",
"970 245 OFFCURVE",
"870 241 CURVE SMOOTH",
"817 239 OFFCURVE",
"694 237 OFFCURVE",
"599 237 CURVE SMOOTH",
"425 237 OFFCURVE",
"309 238 OFFCURVE",
"188 294 CURVE SMOOTH",
"89 340 OFFCURVE",
"30 390 OFFCURVE",
"30 428 CURVE SMOOTH",
"30 467 OFFCURVE",
"59 478 OFFCURVE",
"158 478 CURVE SMOOTH",
"237 478 OFFCURVE",
"274 470 OFFCURVE",
"327 445 CURVE SMOOTH",
"363 428 OFFCURVE",
"415 399 OFFCURVE",
"407 387 CURVE SMOOTH",
"397 373 OFFCURVE",
"379 381 OFFCURVE",
"283 384 CURVE SMOOTH",
"170 388 OFFCURVE",
"182 338 OFFCURVE",
"291 315 CURVE SMOOTH",
"353 302 OFFCURVE",
"386 303 OFFCURVE",
"546 319 CURVE SMOOTH",
"846 349 OFFCURVE",
"984 362 OFFCURVE",
"1129 292 CURVE SMOOTH",
"1185 265 OFFCURVE",
"1219 237 OFFCURVE",
"1215 225 CURVE SMOOTH",
"1212 217 OFFCURVE",
"1210 217 OFFCURVE",
"1156 224 CURVE SMOOTH"
);
}
);
width = 1351;
}
);
unicode = 0078;
},
{
glyphname = zero;
lastChange = "2019-02-20 04:52:23 +0000";
layers = (
{
layerId = "88CA81B2-7675-4395-A8ED-15857F341A98";
paths = (
{
closed = 1;
nodes = (
"536 184 OFFCURVE",
"510 186 OFFCURVE",
"489 195 CURVE SMOOTH",
"466 205 OFFCURVE",
"448 230 OFFCURVE",
"434 269 CURVE SMOOTH",
"427 289 OFFCURVE",
"421 302 OFFCURVE",
"411 312 CURVE SMOOTH",
"401 322 OFFCURVE",
"398 330 OFFCURVE",
"401 338 CURVE SMOOTH",
"404 347 OFFCURVE",
"411 351 OFFCURVE",
"425 351 CURVE SMOOTH",
"456 351 OFFCURVE",
"500 349 OFFCURVE",
"506 347 CURVE SMOOTH",
"512 345 OFFCURVE",
"529 335 OFFCURVE",
"536 322 CURVE SMOOTH",
"537 320 OFFCURVE",
"542 312 OFFCURVE",
"548 299 CURVE SMOOTH",
"551 293 OFFCURVE",
"557 279 OFFCURVE",
"564 266 CURVE SMOOTH",
"578 241 OFFCURVE",
"583 235 OFFCURVE",
"600 233 CURVE SMOOTH",
"608 232 OFFCURVE",
"621 227 OFFCURVE",
"621 216 CURVE SMOOTH",
"621 208 OFFCURVE",
"617 202 OFFCURVE",
"598 193 CURVE SMOOTH",
"585 187 OFFCURVE",
"578 184 OFFCURVE",
"558 184 CURVE SMOOTH"
);
},
{
closed = 1;
nodes = (
"746 183 OFFCURVE",
"720 186 OFFCURVE",
"699 195 CURVE SMOOTH",
"676 205 OFFCURVE",
"658 230 OFFCURVE",
"644 269 CURVE SMOOTH",
"637 289 OFFCURVE",
"631 302 OFFCURVE",
"621 312 CURVE SMOOTH",
"611 322 OFFCURVE",
"608 330 OFFCURVE",
"611 338 CURVE SMOOTH",
"614 347 OFFCURVE",
"621 351 OFFCURVE",
"635 351 CURVE SMOOTH",
"666 351 OFFCURVE",
"710 349 OFFCURVE",
"716 347 CURVE SMOOTH",
"722 345 OFFCURVE",
"740 335 OFFCURVE",
"746 322 CURVE SMOOTH",
"747 320 OFFCURVE",
"752 312 OFFCURVE",
"758 299 CURVE SMOOTH",
"761 293 OFFCURVE",
"767 279 OFFCURVE",
"774 266 CURVE SMOOTH",
"788 241 OFFCURVE",
"793 235 OFFCURVE",
"810 233 CURVE SMOOTH",
"818 232 OFFCURVE",
"831 227 OFFCURVE",
"831 216 CURVE SMOOTH",
"831 208 OFFCURVE",
"826 202 OFFCURVE",
"808 193 CURVE SMOOTH",
"796 187 OFFCURVE",
"788 185 OFFCURVE",
"768 184 CURVE SMOOTH"
);
},
{
closed = 1;
nodes = (
"1186 176 OFFCURVE",
"1049 202 OFFCURVE",
"1006 209 CURVE SMOOTH",
"969 215 OFFCURVE",
"904 221 OFFCURVE",
"898 225 CURVE SMOOTH",
"892 229 OFFCURVE",
"1022 267 OFFCURVE",
"1050 278 CURVE SMOOTH",
"1153 319 OFFCURVE",
"1196 353 OFFCURVE",
"1257 442 CURVE SMOOTH",
"1278 475 OFFCURVE",
"1291 497 OFFCURVE",
"1304 531 CURVE SMOOTH",
"1332 600 OFFCURVE",
"1348 643 OFFCURVE",
"1391 652 CURVE SMOOTH",
"1411 656 OFFCURVE",
"1416 657 OFFCURVE",
"1442 656 CURVE SMOOTH",
"1465 655 OFFCURVE",
"1500 648 OFFCURVE",
"1500 634 CURVE SMOOTH",
"1500 633 OFFCURVE",
"1493 625 OFFCURVE",
"1488 616 CURVE SMOOTH",
"1477 596 OFFCURVE",
"1452 548 OFFCURVE",
"1438 515 CURVE SMOOTH",
"1384 384 OFFCURVE",
"1312 326 OFFCURVE",
"1170 264 CURVE SMOOTH",
"1107 234 OFFCURVE",
"1073 237 OFFCURVE",
"1106 225 CURVE SMOOTH",
"1141 213 OFFCURVE",
"1206 180 OFFCURVE",
"1212 167 CURVE SMOOTH",
"1213 165 OFFCURVE",
"1212 165 OFFCURVE",
"1202 169 CURVE SMOOTH"
);
},
{
closed = 1;
nodes = (
"708 425 OFFCURVE",
"571 452 OFFCURVE",
"528 459 CURVE SMOOTH",
"491 465 OFFCURVE",
"426 471 OFFCURVE",
"420 475 CURVE SMOOTH",
"414 479 OFFCURVE",
"544 517 OFFCURVE",
"572 528 CURVE SMOOTH",
"675 569 OFFCURVE",
"718 603 OFFCURVE",
"779 692 CURVE SMOOTH",
"801 724 OFFCURVE",
"813 747 OFFCURVE",
"826 781 CURVE SMOOTH",
"853 851 OFFCURVE",
"870 893 OFFCURVE",
"913 902 CURVE SMOOTH",
"933 906 OFFCURVE",
"938 907 OFFCURVE",
"964 906 CURVE SMOOTH",
"987 905 OFFCURVE",
"1022 898 OFFCURVE",
"1022 884 CURVE SMOOTH",
"1022 883 OFFCURVE",
"1015 875 OFFCURVE",
"1010 866 CURVE SMOOTH",
"999 846 OFFCURVE",
"974 798 OFFCURVE",
"960 765 CURVE SMOOTH",
"905 635 OFFCURVE",
"834 576 OFFCURVE",
"692 514 CURVE SMOOTH",
"628 486 OFFCURVE",
"595 487 OFFCURVE",
"628 475 CURVE SMOOTH",
"663 462 OFFCURVE",
"728 430 OFFCURVE",
"734 417 CURVE SMOOTH",
"735 415 OFFCURVE",
"734 415 OFFCURVE",
"724 419 CURVE SMOOTH"
);
},
{
closed = 1;
nodes = (
"1294 -6 OFFCURVE",
"1144 9 OFFCURVE",
"1080 12 CURVE SMOOTH",
"938 23 OFFCURVE",
"326 -22 OFFCURVE",
"137 28 CURVE SMOOTH",
"117 33 OFFCURVE",
"87 52 OFFCURVE",
"51 83 CURVE SMOOTH",
"31 100 OFFCURVE",
"30 103 OFFCURVE",
"30 114 CURVE SMOOTH",
"30 129 OFFCURVE",
"43 125 OFFCURVE",
"82 117 CURVE SMOOTH",
"97 114 OFFCURVE",
"127 107 OFFCURVE",
"148 106 CURVE SMOOTH",
"199 104 OFFCURVE",
"573 101 OFFCURVE",
"654 104 CURVE SMOOTH",
"733 107 OFFCURVE",
"1051 112 OFFCURVE",
"1080 106 CURVE SMOOTH",
"1142 94 OFFCURVE",
"1241 63 OFFCURVE",
"1292 35 CURVE SMOOTH",
"1305 28 OFFCURVE",
"1314 22 OFFCURVE",
"1317 12 CURVE SMOOTH",
"1323 -7 OFFCURVE",
"1321 -6 OFFCURVE",
"1307 -6 CURVE SMOOTH"
);
}
);
width = 1350;
}
);
unicode = 0030;
},
{
glyphname = one;
lastChange = "2019-02-20 04:52:23 +0000";
layers = (
{
layerId = "88CA81B2-7675-4395-A8ED-15857F341A98";
paths = (
{
closed = 1;
nodes = (
"1116 18 OFFCURVE",
"978 22 OFFCURVE",
"849 16 CURVE SMOOTH",
"732 11 OFFCURVE",
"672 12 OFFCURVE",
"510 6 CURVE SMOOTH",
"382 1 OFFCURVE",
"341 5 OFFCURVE",
"307 6 CURVE SMOOTH",
"177 10 OFFCURVE",
"87 23 OFFCURVE",
"51 31 CURVE SMOOTH",
"28 36 OFFCURVE",
"-4 54 OFFCURVE",
"-37 80 CURVE SMOOTH",
"-59 97 OFFCURVE",
"-69 120 OFFCURVE",
"-53 120 CURVE SMOOTH",
"-51 120 OFFCURVE",
"-34 117 OFFCURVE",
"-18 114 CURVE SMOOTH",
"50 101 OFFCURVE",
"65 101 OFFCURVE",
"219 99 CURVE SMOOTH",
"300 98 OFFCURVE",
"438 99 OFFCURVE",
"538 101 CURVE SMOOTH",
"632 103 OFFCURVE",
"782 104 OFFCURVE",
"869 104 CURVE SMOOTH",
"1012 104 OFFCURVE",
"1031 104 OFFCURVE",
"1054 100 CURVE SMOOTH",
"1120 89 OFFCURVE",
"1215 60 OFFCURVE",
"1266 34 CURVE SMOOTH",
"1284 25 OFFCURVE",
"1295 10 OFFCURVE",
"1291 1 CURVE SMOOTH",
"1288 -5 OFFCURVE",
"1278 -4 OFFCURVE",
"1241 1 CURVE SMOOTH"
);
},
{
closed = 1;
nodes = (
"708 425 OFFCURVE",
"571 452 OFFCURVE",
"528 459 CURVE SMOOTH",
"491 465 OFFCURVE",
"426 471 OFFCURVE",
"420 475 CURVE SMOOTH",
"414 479 OFFCURVE",
"544 517 OFFCURVE",
"572 528 CURVE SMOOTH",
"675 569 OFFCURVE",
"718 603 OFFCURVE",
"779 692 CURVE SMOOTH",
"801 724 OFFCURVE",
"813 747 OFFCURVE",
"826 781 CURVE SMOOTH",
"853 851 OFFCURVE",
"870 893 OFFCURVE",
"913 902 CURVE SMOOTH",
"933 906 OFFCURVE",
"938 907 OFFCURVE",
"964 906 CURVE SMOOTH",
"987 905 OFFCURVE",
"1022 898 OFFCURVE",
"1022 884 CURVE SMOOTH",
"1022 883 OFFCURVE",
"1015 875 OFFCURVE",
"1010 866 CURVE SMOOTH",
"999 846 OFFCURVE",
"974 798 OFFCURVE",
"960 765 CURVE SMOOTH",
"905 635 OFFCURVE",
"834 576 OFFCURVE",
"692 514 CURVE SMOOTH",
"628 486 OFFCURVE",
"595 487 OFFCURVE",
"628 475 CURVE SMOOTH",
"663 462 OFFCURVE",
"728 430 OFFCURVE",
"734 417 CURVE SMOOTH",
"735 415 OFFCURVE",
"734 415 OFFCURVE",
"724 419 CURVE SMOOTH"
);
},
{
closed = 1;
nodes = (
"148 195 OFFCURVE",
"11 222 OFFCURVE",
"-32 229 CURVE SMOOTH",
"-69 235 OFFCURVE",
"-134 241 OFFCURVE",
"-140 245 CURVE SMOOTH",
"-146 249 OFFCURVE",
"-16 287 OFFCURVE",
"12 298 CURVE SMOOTH",
"115 339 OFFCURVE",
"158 373 OFFCURVE",
"219 462 CURVE SMOOTH",
"241 494 OFFCURVE",
"253 517 OFFCURVE",
"266 551 CURVE SMOOTH",
"293 621 OFFCURVE",
"310 663 OFFCURVE",
"353 672 CURVE SMOOTH",
"373 676 OFFCURVE",
"378 677 OFFCURVE",
"404 676 CURVE SMOOTH",
"427 675 OFFCURVE",
"462 668 OFFCURVE",
"462 654 CURVE SMOOTH",
"462 653 OFFCURVE",
"455 645 OFFCURVE",
"450 636 CURVE SMOOTH",
"439 616 OFFCURVE",
"414 568 OFFCURVE",
"400 535 CURVE SMOOTH",
"345 405 OFFCURVE",
"274 346 OFFCURVE",
"132 284 CURVE SMOOTH",
"68 256 OFFCURVE",
"35 257 OFFCURVE",
"68 245 CURVE SMOOTH",
"103 232 OFFCURVE",
"168 200 OFFCURVE",
"174 187 CURVE SMOOTH",
"175 185 OFFCURVE",
"174 185 OFFCURVE",
"164 189 CURVE SMOOTH"
);
},
{
closed = 1;
nodes = (
"653 194 OFFCURVE",
"627 196 OFFCURVE",
"606 205 CURVE SMOOTH",
"583 215 OFFCURVE",
"565 240 OFFCURVE",
"551 279 CURVE SMOOTH",
"544 299 OFFCURVE",
"538 312 OFFCURVE",
"528 322 CURVE SMOOTH",
"518 332 OFFCURVE",
"515 340 OFFCURVE",
"518 348 CURVE SMOOTH",
"521 357 OFFCURVE",
"528 361 OFFCURVE",
"542 361 CURVE SMOOTH",
"573 361 OFFCURVE",
"617 359 OFFCURVE",
"623 357 CURVE SMOOTH",
"629 355 OFFCURVE",
"646 345 OFFCURVE",
"653 332 CURVE SMOOTH",
"654 330 OFFCURVE",
"659 322 OFFCURVE",
"665 309 CURVE SMOOTH",
"668 303 OFFCURVE",
"674 289 OFFCURVE",
"681 276 CURVE SMOOTH",
"695 251 OFFCURVE",
"700 245 OFFCURVE",
"717 243 CURVE SMOOTH",
"725 242 OFFCURVE",
"738 237 OFFCURVE",
"738 226 CURVE SMOOTH",
"738 218 OFFCURVE",
"734 212 OFFCURVE",
"715 203 CURVE SMOOTH",
"702 197 OFFCURVE",
"695 194 OFFCURVE",
"675 194 CURVE SMOOTH"
);
}
);
width = 1322;
}
);
unicode = 0031;
},
{
glyphname = two;
lastChange = "2019-02-20 04:52:23 +0000";
layers = (
{
layerId = "88CA81B2-7675-4395-A8ED-15857F341A98";
paths = (
{
closed = 1;
nodes = (
"1207 18 OFFCURVE",
"1069 22 OFFCURVE",
"940 16 CURVE SMOOTH",
"823 11 OFFCURVE",
"763 12 OFFCURVE",
"601 6 CURVE SMOOTH",
"473 1 OFFCURVE",
"432 5 OFFCURVE",
"398 6 CURVE SMOOTH",
"268 10 OFFCURVE",
"178 23 OFFCURVE",
"142 31 CURVE SMOOTH",
"119 36 OFFCURVE",
"87 54 OFFCURVE",
"54 80 CURVE SMOOTH",
"32 97 OFFCURVE",
"22 120 OFFCURVE",
"38 120 CURVE SMOOTH",
"40 120 OFFCURVE",
"57 117 OFFCURVE",
"73 114 CURVE SMOOTH",
"141 101 OFFCURVE",
"156 101 OFFCURVE",
"310 99 CURVE SMOOTH",
"391 98 OFFCURVE",
"529 99 OFFCURVE",
"629 101 CURVE SMOOTH",
"723 103 OFFCURVE",
"873 104 OFFCURVE",
"960 104 CURVE SMOOTH",
"1103 104 OFFCURVE",
"1122 104 OFFCURVE",
"1145 100 CURVE SMOOTH",
"1211 89 OFFCURVE",
"1306 60 OFFCURVE",
"1357 34 CURVE SMOOTH",
"1375 25 OFFCURVE",
"1386 10 OFFCURVE",
"1382 1 CURVE SMOOTH",
"1379 -5 OFFCURVE",
"1369 -4 OFFCURVE",
"1332 1 CURVE SMOOTH"
);
},
{
closed = 1;
nodes = (
"1246 175 OFFCURVE",
"1109 202 OFFCURVE",
"1066 209 CURVE SMOOTH",
"1029 215 OFFCURVE",
"964 221 OFFCURVE",
"958 225 CURVE SMOOTH",
"952 229 OFFCURVE",
"1082 267 OFFCURVE",
"1110 278 CURVE SMOOTH",
"1213 319 OFFCURVE",
"1256 353 OFFCURVE",
"1317 442 CURVE SMOOTH",
"1339 474 OFFCURVE",
"1351 497 OFFCURVE",
"1364 531 CURVE SMOOTH",
"1391 601 OFFCURVE",
"1408 643 OFFCURVE",
"1451 652 CURVE SMOOTH",
"1471 656 OFFCURVE",
"1476 657 OFFCURVE",
"1502 656 CURVE SMOOTH",
"1525 655 OFFCURVE",
"1560 648 OFFCURVE",
"1560 634 CURVE SMOOTH",
"1560 633 OFFCURVE",
"1553 625 OFFCURVE",
"1548 616 CURVE SMOOTH",
"1537 596 OFFCURVE",
"1512 548 OFFCURVE",
"1498 515 CURVE SMOOTH",
"1443 385 OFFCURVE",
"1372 326 OFFCURVE",
"1230 264 CURVE SMOOTH",
"1166 236 OFFCURVE",
"1133 237 OFFCURVE",
"1166 225 CURVE SMOOTH",
"1201 212 OFFCURVE",
"1266 180 OFFCURVE",
"1272 167 CURVE SMOOTH",
"1273 165 OFFCURVE",
"1272 165 OFFCURVE",
"1262 169 CURVE SMOOTH"
);
},
{
closed = 1;
nodes = (
"758 195 OFFCURVE",
"621 222 OFFCURVE",
"578 229 CURVE SMOOTH",
"541 235 OFFCURVE",
"476 241 OFFCURVE",
"470 245 CURVE SMOOTH",
"464 249 OFFCURVE",
"594 287 OFFCURVE",
"622 298 CURVE SMOOTH",
"725 339 OFFCURVE",
"768 373 OFFCURVE",
"829 462 CURVE SMOOTH",
"851 494 OFFCURVE",
"863 517 OFFCURVE",
"876 551 CURVE SMOOTH",
"903 621 OFFCURVE",
"920 663 OFFCURVE",
"963 672 CURVE SMOOTH",
"983 676 OFFCURVE",
"988 677 OFFCURVE",
"1014 676 CURVE SMOOTH",
"1037 675 OFFCURVE",
"1072 668 OFFCURVE",
"1072 654 CURVE SMOOTH",
"1072 653 OFFCURVE",
"1065 645 OFFCURVE",
"1060 636 CURVE SMOOTH",
"1049 616 OFFCURVE",
"1024 568 OFFCURVE",
"1010 535 CURVE SMOOTH",
"955 405 OFFCURVE",
"884 346 OFFCURVE",
"742 284 CURVE SMOOTH",
"678 256 OFFCURVE",
"645 257 OFFCURVE",
"678 245 CURVE SMOOTH",
"713 232 OFFCURVE",
"778 200 OFFCURVE",
"784 187 CURVE SMOOTH",
"785 185 OFFCURVE",
"784 185 OFFCURVE",
"774 189 CURVE SMOOTH"
);
},
{
closed = 1;
nodes = (
"248 195 OFFCURVE",
"111 222 OFFCURVE",
"68 229 CURVE SMOOTH",
"31 235 OFFCURVE",
"-34 241 OFFCURVE",
"-40 245 CURVE SMOOTH",
"-46 249 OFFCURVE",
"84 287 OFFCURVE",
"112 298 CURVE SMOOTH",
"215 339 OFFCURVE",
"258 373 OFFCURVE",
"319 462 CURVE SMOOTH",
"341 494 OFFCURVE",
"353 517 OFFCURVE",
"366 551 CURVE SMOOTH",
"393 621 OFFCURVE",
"410 663 OFFCURVE",
"453 672 CURVE SMOOTH",
"473 676 OFFCURVE",
"478 677 OFFCURVE",
"504 676 CURVE SMOOTH",
"527 675 OFFCURVE",
"562 668 OFFCURVE",
"562 654 CURVE SMOOTH",
"562 653 OFFCURVE",
"555 645 OFFCURVE",
"550 636 CURVE SMOOTH",
"539 616 OFFCURVE",
"514 568 OFFCURVE",
"500 535 CURVE SMOOTH",
"445 405 OFFCURVE",
"374 346 OFFCURVE",
"232 284 CURVE SMOOTH",
"168 256 OFFCURVE",
"135 257 OFFCURVE",
"168 245 CURVE SMOOTH",
"203 232 OFFCURVE",
"268 200 OFFCURVE",
"274 187 CURVE SMOOTH",
"275 185 OFFCURVE",
"274 185 OFFCURVE",
"264 189 CURVE SMOOTH"
);
}
);
width = 1473;
}
);
unicode = 0032;
},
{
glyphname = three;
lastChange = "2019-02-20 04:52:23 +0000";
layers = (
{
layerId = "88CA81B2-7675-4395-A8ED-15857F341A98";
paths = (
{
closed = 1;
nodes = (
"536 184 OFFCURVE",
"510 186 OFFCURVE",
"489 195 CURVE SMOOTH",
"466 205 OFFCURVE",
"448 230 OFFCURVE",
"434 269 CURVE SMOOTH",
"427 289 OFFCURVE",
"421 302 OFFCURVE",
"411 312 CURVE SMOOTH",
"401 322 OFFCURVE",
"398 330 OFFCURVE",
"401 338 CURVE SMOOTH",
"404 347 OFFCURVE",
"411 351 OFFCURVE",
"425 351 CURVE SMOOTH",
"456 351 OFFCURVE",
"500 349 OFFCURVE",
"506 347 CURVE SMOOTH",
"512 345 OFFCURVE",
"529 335 OFFCURVE",
"536 322 CURVE SMOOTH",
"537 320 OFFCURVE",
"542 312 OFFCURVE",
"548 299 CURVE SMOOTH",
"551 293 OFFCURVE",
"557 279 OFFCURVE",
"564 266 CURVE SMOOTH",
"578 241 OFFCURVE",
"583 235 OFFCURVE",
"600 233 CURVE SMOOTH",
"608 232 OFFCURVE",
"621 227 OFFCURVE",
"621 216 CURVE SMOOTH",
"621 208 OFFCURVE",
"617 202 OFFCURVE",
"598 193 CURVE SMOOTH",
"585 187 OFFCURVE",
"578 184 OFFCURVE",
"558 184 CURVE SMOOTH"
);
},
{
closed = 1;
nodes = (
"746 183 OFFCURVE",
"720 186 OFFCURVE",
"699 195 CURVE SMOOTH",
"676 205 OFFCURVE",
"658 230 OFFCURVE",
"644 269 CURVE SMOOTH",
"637 289 OFFCURVE",
"631 302 OFFCURVE",
"621 312 CURVE SMOOTH",
"611 322 OFFCURVE",
"608 330 OFFCURVE",
"611 338 CURVE SMOOTH",
"614 347 OFFCURVE",
"621 351 OFFCURVE",
"635 351 CURVE SMOOTH",
"666 351 OFFCURVE",
"710 349 OFFCURVE",
"716 347 CURVE SMOOTH",
"722 345 OFFCURVE",
"740 335 OFFCURVE",
"746 322 CURVE SMOOTH",
"747 320 OFFCURVE",
"752 312 OFFCURVE",
"758 299 CURVE SMOOTH",
"761 293 OFFCURVE",
"767 279 OFFCURVE",
"774 266 CURVE SMOOTH",
"788 241 OFFCURVE",
"793 235 OFFCURVE",
"810 233 CURVE SMOOTH",
"818 232 OFFCURVE",
"831 227 OFFCURVE",
"831 216 CURVE SMOOTH",
"831 208 OFFCURVE",
"826 202 OFFCURVE",
"808 193 CURVE SMOOTH",
"796 187 OFFCURVE",
"788 185 OFFCURVE",
"768 184 CURVE SMOOTH"
);
},
{
closed = 1;
nodes = (
"1186 176 OFFCURVE",
"1049 202 OFFCURVE",
"1006 209 CURVE SMOOTH",
"969 215 OFFCURVE",
"904 221 OFFCURVE",
"898 225 CURVE SMOOTH",
"892 229 OFFCURVE",
"1022 267 OFFCURVE",
"1050 278 CURVE SMOOTH",
"1153 319 OFFCURVE",
"1196 353 OFFCURVE",
"1257 442 CURVE SMOOTH",
"1278 475 OFFCURVE",
"1291 497 OFFCURVE",
"1304 531 CURVE SMOOTH",
"1332 600 OFFCURVE",
"1348 643 OFFCURVE",
"1391 652 CURVE SMOOTH",
"1411 656 OFFCURVE",
"1416 657 OFFCURVE",
"1442 656 CURVE SMOOTH",
"1465 655 OFFCURVE",
"1500 648 OFFCURVE",
"1500 634 CURVE SMOOTH",
"1500 633 OFFCURVE",
"1493 625 OFFCURVE",
"1488 616 CURVE SMOOTH",
"1477 596 OFFCURVE",
"1452 548 OFFCURVE",
"1438 515 CURVE SMOOTH",
"1384 384 OFFCURVE",
"1312 326 OFFCURVE",
"1170 264 CURVE SMOOTH",
"1107 234 OFFCURVE",
"1073 237 OFFCURVE",
"1106 225 CURVE SMOOTH",
"1141 213 OFFCURVE",
"1206 180 OFFCURVE",
"1212 167 CURVE SMOOTH",
"1213 165 OFFCURVE",
"1212 165 OFFCURVE",
"1202 169 CURVE SMOOTH"
);
},
{
closed = 1;
nodes = (
"708 425 OFFCURVE",
"571 452 OFFCURVE",
"528 459 CURVE SMOOTH",
"491 465 OFFCURVE",
"426 471 OFFCURVE",
"420 475 CURVE SMOOTH",
"414 479 OFFCURVE",
"544 517 OFFCURVE",
"572 528 CURVE SMOOTH",
"675 569 OFFCURVE",
"718 603 OFFCURVE",
"779 692 CURVE SMOOTH",
"801 724 OFFCURVE",
"813 747 OFFCURVE",
"826 781 CURVE SMOOTH",
"853 851 OFFCURVE",
"870 893 OFFCURVE",
"913 902 CURVE SMOOTH",
"933 906 OFFCURVE",
"938 907 OFFCURVE",
"964 906 CURVE SMOOTH",
"987 905 OFFCURVE",
"1022 898 OFFCURVE",
"1022 884 CURVE SMOOTH",
"1022 883 OFFCURVE",
"1015 875 OFFCURVE",
"1010 866 CURVE SMOOTH",
"999 846 OFFCURVE",
"974 798 OFFCURVE",
"960 765 CURVE SMOOTH",
"905 635 OFFCURVE",
"834 576 OFFCURVE",
"692 514 CURVE SMOOTH",
"628 486 OFFCURVE",
"595 487 OFFCURVE",
"628 475 CURVE SMOOTH",
"663 462 OFFCURVE",
"728 430 OFFCURVE",
"734 417 CURVE SMOOTH",
"735 415 OFFCURVE",
"734 415 OFFCURVE",
"724 419 CURVE SMOOTH"
);
},
{
closed = 1;
nodes = (
"148 195 OFFCURVE",
"11 222 OFFCURVE",
"-32 229 CURVE SMOOTH",
"-69 235 OFFCURVE",
"-134 241 OFFCURVE",
"-140 245 CURVE SMOOTH",
"-146 249 OFFCURVE",
"-16 287 OFFCURVE",
"12 298 CURVE SMOOTH",
"115 339 OFFCURVE",
"158 373 OFFCURVE",
"219 462 CURVE SMOOTH",
"241 494 OFFCURVE",
"253 517 OFFCURVE",
"266 551 CURVE SMOOTH",
"293 621 OFFCURVE",
"310 663 OFFCURVE",
"353 672 CURVE SMOOTH",
"373 676 OFFCURVE",
"378 677 OFFCURVE",
"404 676 CURVE SMOOTH",
"427 675 OFFCURVE",
"462 668 OFFCURVE",
"462 654 CURVE SMOOTH",
"462 653 OFFCURVE",
"455 645 OFFCURVE",
"450 636 CURVE SMOOTH",
"439 616 OFFCURVE",
"414 568 OFFCURVE",
"400 535 CURVE SMOOTH",
"345 405 OFFCURVE",
"274 346 OFFCURVE",
"132 284 CURVE SMOOTH",
"68 256 OFFCURVE",
"35 257 OFFCURVE",
"68 245 CURVE SMOOTH",
"103 232 OFFCURVE",
"168 200 OFFCURVE",
"174 187 CURVE SMOOTH",
"175 185 OFFCURVE",
"174 185 OFFCURVE",
"164 189 CURVE SMOOTH"
);
},
{
closed = 1;
nodes = (
"1116 18 OFFCURVE",
"978 22 OFFCURVE",
"849 16 CURVE SMOOTH",
"732 11 OFFCURVE",
"672 12 OFFCURVE",
"510 6 CURVE SMOOTH",
"382 1 OFFCURVE",
"341 5 OFFCURVE",
"307 6 CURVE SMOOTH",
"177 10 OFFCURVE",
"87 23 OFFCURVE",
"51 31 CURVE SMOOTH",
"28 36 OFFCURVE",
"-4 54 OFFCURVE",
"-37 80 CURVE SMOOTH",
"-59 97 OFFCURVE",
"-69 120 OFFCURVE",
"-53 120 CURVE SMOOTH",
"-51 120 OFFCURVE",
"-34 117 OFFCURVE",
"-18 114 CURVE SMOOTH",
"50 101 OFFCURVE",
"65 101 OFFCURVE",
"219 99 CURVE SMOOTH",
"300 98 OFFCURVE",
"438 99 OFFCURVE",
"538 101 CURVE SMOOTH",
"632 103 OFFCURVE",
"782 104 OFFCURVE",
"869 104 CURVE SMOOTH",
"1012 104 OFFCURVE",
"1031 104 OFFCURVE",
"1054 100 CURVE SMOOTH",
"1120 89 OFFCURVE",
"1215 60 OFFCURVE",
"1266 34 CURVE SMOOTH",
"1284 25 OFFCURVE",
"1295 10 OFFCURVE",
"1291 1 CURVE SMOOTH",
"1288 -5 OFFCURVE",
"1278 -4 OFFCURVE",
"1241 1 CURVE SMOOTH"
);
}
);
width = 1350;
}
);
unicode = 0033;
},
{
glyphname = four;
lastChange = "2019-02-20 04:52:23 +0000";
layers = (
{
layerId = "88CA81B2-7675-4395-A8ED-15857F341A98";
paths = (
{
closed = 1;
nodes = (
"1116 18 OFFCURVE",
"978 22 OFFCURVE",
"849 16 CURVE SMOOTH",
"732 11 OFFCURVE",
"672 12 OFFCURVE",
"510 6 CURVE SMOOTH",
"382 1 OFFCURVE",
"341 5 OFFCURVE",
"307 6 CURVE SMOOTH",
"177 10 OFFCURVE",
"87 23 OFFCURVE",
"51 31 CURVE SMOOTH",
"28 36 OFFCURVE",
"-4 54 OFFCURVE",
"-37 80 CURVE SMOOTH",
"-59 97 OFFCURVE",
"-69 120 OFFCURVE",
"-53 120 CURVE SMOOTH",
"-51 120 OFFCURVE",
"-34 117 OFFCURVE",
"-18 114 CURVE SMOOTH",
"50 101 OFFCURVE",
"65 101 OFFCURVE",
"219 99 CURVE SMOOTH",
"300 98 OFFCURVE",
"438 99 OFFCURVE",
"538 101 CURVE SMOOTH",
"632 103 OFFCURVE",
"782 104 OFFCURVE",
"869 104 CURVE SMOOTH",
"1012 104 OFFCURVE",
"1031 104 OFFCURVE",
"1054 100 CURVE SMOOTH",
"1120 89 OFFCURVE",
"1215 60 OFFCURVE",
"1266 34 CURVE SMOOTH",
"1284 25 OFFCURVE",
"1295 10 OFFCURVE",
"1291 1 CURVE SMOOTH",
"1288 -5 OFFCURVE",
"1278 -4 OFFCURVE",
"1241 1 CURVE SMOOTH"
);
},
{
closed = 1;
nodes = (
"1186 176 OFFCURVE",
"1049 202 OFFCURVE",
"1006 209 CURVE SMOOTH",
"969 215 OFFCURVE",
"904 221 OFFCURVE",
"898 225 CURVE SMOOTH",
"892 229 OFFCURVE",
"1022 267 OFFCURVE",
"1050 278 CURVE SMOOTH",
"1153 319 OFFCURVE",
"1196 353 OFFCURVE",
"1257 442 CURVE SMOOTH",
"1278 475 OFFCURVE",
"1291 497 OFFCURVE",
"1304 531 CURVE SMOOTH",
"1332 600 OFFCURVE",
"1348 643 OFFCURVE",
"1391 652 CURVE SMOOTH",
"1411 656 OFFCURVE",
"1416 657 OFFCURVE",
"1442 656 CURVE SMOOTH",
"1465 655 OFFCURVE",
"1500 648 OFFCURVE",
"1500 634 CURVE SMOOTH",
"1500 633 OFFCURVE",
"1493 625 OFFCURVE",
"1488 616 CURVE SMOOTH",
"1477 596 OFFCURVE",
"1452 548 OFFCURVE",
"1438 515 CURVE SMOOTH",
"1384 384 OFFCURVE",
"1312 326 OFFCURVE",
"1170 264 CURVE SMOOTH",
"1107 234 OFFCURVE",
"1073 237 OFFCURVE",
"1106 225 CURVE SMOOTH",
"1141 213 OFFCURVE",
"1206 180 OFFCURVE",
"1212 167 CURVE SMOOTH",
"1213 165 OFFCURVE",
"1212 165 OFFCURVE",
"1202 169 CURVE SMOOTH"
);
},
{
closed = 1;
nodes = (
"708 425 OFFCURVE",
"571 452 OFFCURVE",
"528 459 CURVE SMOOTH",
"491 465 OFFCURVE",
"426 471 OFFCURVE",
"420 475 CURVE SMOOTH",
"414 479 OFFCURVE",
"544 517 OFFCURVE",
"572 528 CURVE SMOOTH",
"675 569 OFFCURVE",
"718 603 OFFCURVE",
"779 692 CURVE SMOOTH",
"801 724 OFFCURVE",
"813 747 OFFCURVE",
"826 781 CURVE SMOOTH",
"853 851 OFFCURVE",
"870 893 OFFCURVE",
"913 902 CURVE SMOOTH",
"933 906 OFFCURVE",
"938 907 OFFCURVE",
"964 906 CURVE SMOOTH",
"987 905 OFFCURVE",
"1022 898 OFFCURVE",
"1022 884 CURVE SMOOTH",
"1022 883 OFFCURVE",
"1015 875 OFFCURVE",
"1010 866 CURVE SMOOTH",
"999 846 OFFCURVE",
"974 798 OFFCURVE",
"960 765 CURVE SMOOTH",
"905 635 OFFCURVE",
"834 576 OFFCURVE",
"692 514 CURVE SMOOTH",
"628 486 OFFCURVE",
"595 487 OFFCURVE",
"628 475 CURVE SMOOTH",
"663 462 OFFCURVE",
"728 430 OFFCURVE",
"734 417 CURVE SMOOTH",
"735 415 OFFCURVE",
"734 415 OFFCURVE",
"724 419 CURVE SMOOTH"
);
},
{
closed = 1;
nodes = (
"148 195 OFFCURVE",
"11 222 OFFCURVE",
"-32 229 CURVE SMOOTH",
"-69 235 OFFCURVE",
"-134 241 OFFCURVE",
"-140 245 CURVE SMOOTH",
"-146 249 OFFCURVE",
"-16 287 OFFCURVE",
"12 298 CURVE SMOOTH",
"115 339 OFFCURVE",
"158 373 OFFCURVE",
"219 462 CURVE SMOOTH",
"241 494 OFFCURVE",
"253 517 OFFCURVE",
"266 551 CURVE SMOOTH",
"293 621 OFFCURVE",
"310 663 OFFCURVE",
"353 672 CURVE SMOOTH",
"373 676 OFFCURVE",
"378 677 OFFCURVE",
"404 676 CURVE SMOOTH",
"427 675 OFFCURVE",
"462 668 OFFCURVE",
"462 654 CURVE SMOOTH",
"462 653 OFFCURVE",
"455 645 OFFCURVE",
"450 636 CURVE SMOOTH",
"439 616 OFFCURVE",
"414 568 OFFCURVE",
"400 535 CURVE SMOOTH",
"345 405 OFFCURVE",
"274 346 OFFCURVE",
"132 284 CURVE SMOOTH",
"68 256 OFFCURVE",
"35 257 OFFCURVE",
"68 245 CURVE SMOOTH",
"103 232 OFFCURVE",
"168 200 OFFCURVE",
"174 187 CURVE SMOOTH",
"175 185 OFFCURVE",
"174 185 OFFCURVE",
"164 189 CURVE SMOOTH"
);
},
{
closed = 1;
nodes = (
"653 194 OFFCURVE",
"627 196 OFFCURVE",
"606 205 CURVE SMOOTH",
"583 215 OFFCURVE",
"565 240 OFFCURVE",
"551 279 CURVE SMOOTH",
"544 299 OFFCURVE",
"538 312 OFFCURVE",
"528 322 CURVE SMOOTH",
"518 332 OFFCURVE",
"515 340 OFFCURVE",
"518 348 CURVE SMOOTH",
"521 357 OFFCURVE",
"528 361 OFFCURVE",
"542 361 CURVE SMOOTH",
"573 361 OFFCURVE",
"617 359 OFFCURVE",
"623 357 CURVE SMOOTH",
"629 355 OFFCURVE",
"646 345 OFFCURVE",
"653 332 CURVE SMOOTH",
"654 330 OFFCURVE",
"659 322 OFFCURVE",
"665 309 CURVE SMOOTH",
"668 303 OFFCURVE",
"674 289 OFFCURVE",
"681 276 CURVE SMOOTH",
"695 251 OFFCURVE",
"700 245 OFFCURVE",
"717 243 CURVE SMOOTH",
"725 242 OFFCURVE",
"738 237 OFFCURVE",
"738 226 CURVE SMOOTH",
"738 218 OFFCURVE",
"734 212 OFFCURVE",
"715 203 CURVE SMOOTH",
"702 197 OFFCURVE",
"695 194 OFFCURVE",
"675 194 CURVE SMOOTH"
);
}
);
width = 1350;
}
);
unicode = 0034;
},
{
glyphname = underscore;
lastChange = "2019-02-20 04:52:23 +0000";
layers = (
{
layerId = "88CA81B2-7675-4395-A8ED-15857F341A98";
paths = (
{
closed = 1;
nodes = (
"1331 -102 OFFCURVE",
"1152 -80 OFFCURVE",
"1057 -45 CURVE SMOOTH",
"905 11 OFFCURVE",
"813 53 OFFCURVE",
"776 91 CURVE SMOOTH",
"745 123 OFFCURVE",
"750 146 OFFCURVE",
"794 154 CURVE SMOOTH",
"833 161 OFFCURVE",
"1027 157 OFFCURVE",
"1055 133 CURVE SMOOTH",
"1062 127 OFFCURVE",
"1063 122 OFFCURVE",
"1056 115 CURVE SMOOTH",
"1054 113 OFFCURVE",
"1048 113 OFFCURVE",
"1024 111 CURVE SMOOTH",
"996 109 OFFCURVE",
"982 107 OFFCURVE",
"981 103 CURVE SMOOTH",
"972 65 OFFCURVE",
"1124 -2 OFFCURVE",
"1208 -24 CURVE SMOOTH",
"1379 -69 OFFCURVE",
"1621 -78 OFFCURVE",
"1621 28 CURVE SMOOTH",
"1621 66 OFFCURVE",
"1598 96 OFFCURVE",
"1556 117 CURVE SMOOTH",
"1492 149 OFFCURVE",
"1550 155 OFFCURVE",
"1624 155 CURVE SMOOTH",
"1724 155 OFFCURVE",
"1808 130 OFFCURVE",
"1787 26 CURVE SMOOTH",
"1767 -74 OFFCURVE",
"1613 -107 OFFCURVE",
"1446 -104 CURVE SMOOTH"
);
},
{
closed = 1;
nodes = (
"1679 215 OFFCURVE",
"1616 225 OFFCURVE",
"1573 231 CURVE SMOOTH",
"1485 243 OFFCURVE",
"1548 255 OFFCURVE",
"1492 324 CURVE SMOOTH",
"1470 351 OFFCURVE",
"1454 362 OFFCURVE",
"1393 391 CURVE SMOOTH",
"1297 437 OFFCURVE",
"1196 460 OFFCURVE",
"1100 460 CURVE SMOOTH",
"1041 460 OFFCURVE",
"960 450 OFFCURVE",
"941 400 CURVE SMOOTH",
"927 362 OFFCURVE",
"959 338 OFFCURVE",
"1007 307 CURVE SMOOTH",
"1046 282 OFFCURVE",
"971 288 OFFCURVE",
"910 301 CURVE SMOOTH",
"853 313 OFFCURVE",
"816 318 OFFCURVE",
"783 369 CURVE SMOOTH",
"772 386 OFFCURVE",
"769 399 OFFCURVE",
"769 426 CURVE SMOOTH",
"769 540 OFFCURVE",
"982 537 OFFCURVE",
"1146 512 CURVE SMOOTH",
"1344 482 OFFCURVE",
"1576 400 OFFCURVE",
"1693 280 CURVE SMOOTH",
"1728 244 OFFCURVE",
"1732 226 OFFCURVE",
"1704 220 CURVE SMOOTH"
);
},
{
closed = 1;
nodes = (
"499 275 OFFCURVE",
"474 275 OFFCURVE",
"474 290 CURVE SMOOTH",
"474 301 OFFCURVE",
"500 316 OFFCURVE",
"514 332 CURVE SMOOTH",
"539 360 OFFCURVE",
"505 397 OFFCURVE",
"436 421 CURVE SMOOTH",
"367 445 OFFCURVE",
"240 470 OFFCURVE",
"153 475 CURVE SMOOTH",
"103 478 OFFCURVE",
"17 484 OFFCURVE",
"9 487 CURVE SMOOTH",
"1 490 OFFCURVE",
"-2 496 OFFCURVE",
"1 501 CURVE SMOOTH",
"10 516 OFFCURVE",
"66 527 OFFCURVE",
"144 530 CURVE SMOOTH",
"248 534 OFFCURVE",
"365 516 OFFCURVE",
"493 484 CURVE SMOOTH",
"630 450 OFFCURVE",
"717 400 OFFCURVE",
"730 333 CURVE SMOOTH",
"735 307 OFFCURVE",
"731 281 OFFCURVE",
"714 267 CURVE SMOOTH",
"691 248 OFFCURVE",
"671 246 OFFCURVE",
"558 265 CURVE SMOOTH"
);
}
);
width = 1820;
}
);
unicode = 005F;
},
{
glyphname = braceleft;
lastChange = "2019-02-20 04:52:23 +0000";
layers = (
{
layerId = "88CA81B2-7675-4395-A8ED-15857F341A98";
paths = (
{
closed = 1;
nodes = (
"205 -450 OFFCURVE",
"96 -322 OFFCURVE",
"-87 -322 CURVE SMOOTH",
"-201 -324 OFFCURVE",
"-341 -354 OFFCURVE",
"-543 -422 CURVE SMOOTH",
"-586 -437 OFFCURVE",
"-618 -450 OFFCURVE",
"-622 -447 CURVE SMOOTH",
"-626 -444 OFFCURVE",
"-617 -429 OFFCURVE",
"-610 -410 CURVE SMOOTH",
"-597 -377 OFFCURVE",
"-596 -372 OFFCURVE",
"-593 -335 CURVE SMOOTH",
"-590 -294 OFFCURVE",
"-588 -289 OFFCURVE",
"-573 -277 CURVE SMOOTH",
"-565 -271 OFFCURVE",
"-533 -263 OFFCURVE",
"-511 -260 CURVE SMOOTH",
"-489 -257 OFFCURVE",
"-468 -271 OFFCURVE",
"-468 -287 CURVE SMOOTH",
"-468 -292 OFFCURVE",
"-474 -334 OFFCURVE",
"-472 -334 CURVE",
"-466 -332 OFFCURVE",
"-459 -329 OFFCURVE",
"-453 -327 CURVE SMOOTH",
"-418 -315 OFFCURVE",
"-336 -300 OFFCURVE",
"-201 -284 CURVE SMOOTH",
"-33 -263 OFFCURVE",
"113 -295 OFFCURVE",
"282 -369 CURVE SMOOTH",
"428 -433 OFFCURVE",
"547 -410 OFFCURVE",
"694 -364 CURVE SMOOTH",
"735 -351 OFFCURVE",
"742 -350 OFFCURVE",
"749 -352 CURVE SMOOTH",
"758 -355 OFFCURVE",
"760 -363 OFFCURVE",
"753 -369 CURVE SMOOTH",
"710 -409 OFFCURVE",
"520 -460 OFFCURVE",
"422 -457 CURVE SMOOTH"
);
},
{
closed = 1;
nodes = (
"-372 -222 LINE SMOOTH",
"-397 -214 OFFCURVE",
"-418 -204 OFFCURVE",
"-422 -198 CURVE SMOOTH",
"-432 -182 OFFCURVE",
"-418 -170 OFFCURVE",
"-398 -153 CURVE SMOOTH",
"-382 -139 OFFCURVE",
"-384 -135 OFFCURVE",
"-366 -135 CURVE SMOOTH",
"-348 -135 OFFCURVE",
"-332 -140 OFFCURVE",
"-304 -152 CURVE SMOOTH",
"-279 -163 OFFCURVE",
"-276 -163 OFFCURVE",
"-269 -172 CURVE SMOOTH",
"-263 -180 OFFCURVE",
"-262 -181 OFFCURVE",
"-263 -188 CURVE SMOOTH",
"-265 -205 OFFCURVE",
"-300 -233 OFFCURVE",
"-313 -236 CURVE SMOOTH",
"-321 -238 OFFCURVE",
"-324 -237 OFFCURVE",
"-340 -232 CURVE SMOOTH"
);
},
{
closed = 1;
nodes = (
"-162 -222 LINE SMOOTH",
"-187 -214 OFFCURVE",
"-208 -204 OFFCURVE",
"-212 -198 CURVE SMOOTH",
"-222 -182 OFFCURVE",
"-208 -170 OFFCURVE",
"-188 -153 CURVE SMOOTH",
"-172 -139 OFFCURVE",
"-174 -135 OFFCURVE",
"-156 -135 CURVE SMOOTH",
"-138 -135 OFFCURVE",
"-122 -140 OFFCURVE",
"-94 -152 CURVE SMOOTH",
"-69 -163 OFFCURVE",
"-66 -163 OFFCURVE",
"-59 -172 CURVE SMOOTH",
"-53 -180 OFFCURVE",
"-52 -181 OFFCURVE",
"-53 -188 CURVE SMOOTH",
"-55 -205 OFFCURVE",
"-90 -233 OFFCURVE",
"-103 -236 CURVE SMOOTH",
"-111 -238 OFFCURVE",
"-114 -237 OFFCURVE",
"-130 -232 CURVE SMOOTH"
);
},
{
closed = 1;
nodes = (
"48 -222 LINE SMOOTH",
"23 -214 OFFCURVE",
"2 -204 OFFCURVE",
"-2 -198 CURVE SMOOTH",
"-12 -182 OFFCURVE",
"2 -170 OFFCURVE",
"22 -153 CURVE SMOOTH",
"38 -139 OFFCURVE",
"36 -135 OFFCURVE",
"54 -135 CURVE SMOOTH",
"72 -135 OFFCURVE",
"88 -140 OFFCURVE",
"116 -152 CURVE SMOOTH",
"141 -163 OFFCURVE",
"144 -163 OFFCURVE",
"151 -172 CURVE SMOOTH",
"157 -180 OFFCURVE",
"158 -181 OFFCURVE",
"157 -188 CURVE SMOOTH",
"155 -205 OFFCURVE",
"120 -233 OFFCURVE",
"107 -236 CURVE SMOOTH",
"99 -238 OFFCURVE",
"96 -237 OFFCURVE",
"80 -232 CURVE SMOOTH"
);
}
);
width = 0;
}
);
unicode = 007B;
},
{
glyphname = braceright;
lastChange = "2019-02-20 04:52:23 +0000";
layers = (
{
layerId = "88CA81B2-7675-4395-A8ED-15857F341A98";
paths = (
{
closed = 1;
nodes = (
"401 -600 OFFCURVE",
"299 -584 OFFCURVE",
"177 -556 CURVE SMOOTH",
"134 -546 OFFCURVE",
"83 -532 OFFCURVE",
"76 -530 CURVE SMOOTH",
"72 -529 OFFCURVE",
"71 -520 OFFCURVE",
"74 -519 CURVE SMOOTH",
"78 -518 OFFCURVE",
"113 -524 OFFCURVE",
"132 -526 CURVE SMOOTH",
"340 -548 OFFCURVE",
"455 -568 OFFCURVE",
"516 -563 CURVE SMOOTH",
"620 -554 OFFCURVE",
"729 -513 OFFCURVE",
"855 -442 CURVE SMOOTH",
"901 -416 OFFCURVE",
"972 -365 OFFCURVE",
"997 -357 CURVE SMOOTH",
"1023 -349 OFFCURVE",
"1044 -347 OFFCURVE",
"1078 -347 CURVE SMOOTH",
"1135 -347 OFFCURVE",
"1224 -359 OFFCURVE",
"1246 -370 CURVE SMOOTH",
"1268 -381 OFFCURVE",
"1261 -385 OFFCURVE",
"1240 -387 CURVE SMOOTH",
"1182 -393 OFFCURVE",
"1113 -421 OFFCURVE",
"1049 -453 CURVE SMOOTH",
"913 -521 OFFCURVE",
"920 -537 OFFCURVE",
"786 -574 CURVE SMOOTH",
"695 -599 OFFCURVE",
"589 -610 OFFCURVE",
"498 -605 CURVE SMOOTH"
);
}
);
width = 0;
}
);
unicode = 007D;
},
{
glyphname = bracketleft;
lastChange = "2019-02-20 04:52:23 +0000";
layers = (
{
layerId = "88CA81B2-7675-4395-A8ED-15857F341A98";
paths = (
{
closed = 1;
nodes = (
"205 -450 OFFCURVE",
"96 -322 OFFCURVE",
"-87 -322 CURVE SMOOTH",
"-201 -324 OFFCURVE",
"-341 -354 OFFCURVE",
"-543 -422 CURVE SMOOTH",
"-586 -437 OFFCURVE",
"-618 -450 OFFCURVE",
"-622 -447 CURVE SMOOTH",
"-626 -444 OFFCURVE",
"-617 -429 OFFCURVE",
"-610 -410 CURVE SMOOTH",
"-597 -377 OFFCURVE",
"-596 -372 OFFCURVE",
"-593 -335 CURVE SMOOTH",
"-590 -294 OFFCURVE",
"-588 -289 OFFCURVE",
"-573 -277 CURVE SMOOTH",
"-565 -271 OFFCURVE",
"-533 -263 OFFCURVE",
"-511 -260 CURVE SMOOTH",
"-489 -257 OFFCURVE",
"-468 -271 OFFCURVE",
"-468 -287 CURVE SMOOTH",
"-468 -292 OFFCURVE",
"-474 -334 OFFCURVE",
"-472 -334 CURVE",
"-466 -332 OFFCURVE",
"-459 -329 OFFCURVE",
"-453 -327 CURVE SMOOTH",
"-418 -315 OFFCURVE",
"-336 -300 OFFCURVE",
"-201 -284 CURVE SMOOTH",
"-33 -263 OFFCURVE",
"113 -295 OFFCURVE",
"282 -369 CURVE SMOOTH",
"428 -433 OFFCURVE",
"547 -410 OFFCURVE",
"694 -364 CURVE SMOOTH",
"735 -351 OFFCURVE",
"742 -350 OFFCURVE",
"749 -352 CURVE SMOOTH",
"758 -355 OFFCURVE",
"760 -363 OFFCURVE",
"753 -369 CURVE SMOOTH",
"710 -409 OFFCURVE",
"520 -460 OFFCURVE",
"422 -457 CURVE SMOOTH"
);
},
{
closed = 1;
nodes = (
"-372 -222 LINE SMOOTH",
"-397 -214 OFFCURVE",
"-418 -204 OFFCURVE",
"-422 -198 CURVE SMOOTH",
"-432 -182 OFFCURVE",
"-418 -170 OFFCURVE",
"-398 -153 CURVE SMOOTH",
"-382 -139 OFFCURVE",
"-384 -135 OFFCURVE",
"-366 -135 CURVE SMOOTH",
"-348 -135 OFFCURVE",
"-332 -140 OFFCURVE",
"-304 -152 CURVE SMOOTH",
"-279 -163 OFFCURVE",
"-276 -163 OFFCURVE",
"-269 -172 CURVE SMOOTH",
"-263 -180 OFFCURVE",
"-262 -181 OFFCURVE",
"-263 -188 CURVE SMOOTH",
"-265 -205 OFFCURVE",
"-300 -233 OFFCURVE",
"-313 -236 CURVE SMOOTH",
"-321 -238 OFFCURVE",
"-324 -237 OFFCURVE",
"-340 -232 CURVE SMOOTH"
);
},
{
closed = 1;
nodes = (
"-162 -222 LINE SMOOTH",
"-187 -214 OFFCURVE",
"-208 -204 OFFCURVE",
"-212 -198 CURVE SMOOTH",
"-222 -182 OFFCURVE",
"-208 -170 OFFCURVE",
"-188 -153 CURVE SMOOTH",
"-172 -139 OFFCURVE",
"-174 -135 OFFCURVE",
"-156 -135 CURVE SMOOTH",
"-138 -135 OFFCURVE",
"-122 -140 OFFCURVE",
"-94 -152 CURVE SMOOTH",
"-69 -163 OFFCURVE",
"-66 -163 OFFCURVE",
"-59 -172 CURVE SMOOTH",
"-53 -180 OFFCURVE",
"-52 -181 OFFCURVE",
"-53 -188 CURVE SMOOTH",
"-55 -205 OFFCURVE",
"-90 -233 OFFCURVE",
"-103 -236 CURVE SMOOTH",
"-111 -238 OFFCURVE",
"-114 -237 OFFCURVE",
"-130 -232 CURVE SMOOTH"
);
}
);
width = 0;
}
);
unicode = 005B;
},
{
glyphname = bracketright;
lastChange = "2019-02-20 04:52:23 +0000";
layers = (
{
layerId = "88CA81B2-7675-4395-A8ED-15857F341A98";
paths = (
{
closed = 1;
nodes = (
"205 -450 OFFCURVE",
"96 -322 OFFCURVE",
"-87 -322 CURVE SMOOTH",
"-201 -324 OFFCURVE",
"-341 -354 OFFCURVE",
"-543 -422 CURVE SMOOTH",
"-586 -437 OFFCURVE",
"-618 -450 OFFCURVE",
"-622 -447 CURVE SMOOTH",
"-626 -444 OFFCURVE",
"-617 -429 OFFCURVE",
"-610 -410 CURVE SMOOTH",
"-597 -377 OFFCURVE",
"-596 -372 OFFCURVE",
"-593 -335 CURVE SMOOTH",
"-590 -294 OFFCURVE",
"-588 -289 OFFCURVE",
"-573 -277 CURVE SMOOTH",
"-565 -271 OFFCURVE",
"-533 -263 OFFCURVE",
"-511 -260 CURVE SMOOTH",
"-489 -257 OFFCURVE",
"-468 -271 OFFCURVE",
"-468 -287 CURVE SMOOTH",
"-468 -292 OFFCURVE",
"-474 -334 OFFCURVE",
"-472 -334 CURVE",
"-466 -332 OFFCURVE",
"-459 -329 OFFCURVE",
"-453 -327 CURVE SMOOTH",
"-418 -315 OFFCURVE",
"-336 -300 OFFCURVE",
"-201 -284 CURVE SMOOTH",
"-33 -263 OFFCURVE",
"113 -295 OFFCURVE",
"282 -369 CURVE SMOOTH",
"428 -433 OFFCURVE",
"547 -410 OFFCURVE",
"694 -364 CURVE SMOOTH",
"735 -351 OFFCURVE",
"742 -350 OFFCURVE",
"749 -352 CURVE SMOOTH",
"758 -355 OFFCURVE",
"760 -363 OFFCURVE",
"753 -369 CURVE SMOOTH",
"710 -409 OFFCURVE",
"520 -460 OFFCURVE",
"422 -457 CURVE SMOOTH"
);
},
{
closed = 1;
nodes = (
"-372 -222 LINE SMOOTH",
"-397 -214 OFFCURVE",
"-418 -204 OFFCURVE",
"-422 -198 CURVE SMOOTH",
"-432 -182 OFFCURVE",
"-418 -170 OFFCURVE",
"-398 -153 CURVE SMOOTH",
"-382 -139 OFFCURVE",
"-384 -135 OFFCURVE",
"-366 -135 CURVE SMOOTH",
"-348 -135 OFFCURVE",
"-332 -140 OFFCURVE",
"-304 -152 CURVE SMOOTH",
"-279 -163 OFFCURVE",
"-276 -163 OFFCURVE",
"-269 -172 CURVE SMOOTH",
"-263 -180 OFFCURVE",
"-262 -181 OFFCURVE",
"-263 -188 CURVE SMOOTH",
"-265 -205 OFFCURVE",
"-300 -233 OFFCURVE",
"-313 -236 CURVE SMOOTH",
"-321 -238 OFFCURVE",
"-324 -237 OFFCURVE",
"-340 -232 CURVE SMOOTH"
);
},
{
closed = 1;
nodes = (
"-162 -222 LINE SMOOTH",
"-187 -214 OFFCURVE",
"-208 -204 OFFCURVE",
"-212 -198 CURVE SMOOTH",
"-222 -182 OFFCURVE",
"-208 -170 OFFCURVE",
"-188 -153 CURVE SMOOTH",
"-172 -139 OFFCURVE",
"-174 -135 OFFCURVE",
"-156 -135 CURVE SMOOTH",
"-138 -135 OFFCURVE",
"-122 -140 OFFCURVE",
"-94 -152 CURVE SMOOTH",
"-69 -163 OFFCURVE",
"-66 -163 OFFCURVE",
"-59 -172 CURVE SMOOTH",
"-53 -180 OFFCURVE",
"-52 -181 OFFCURVE",
"-53 -188 CURVE SMOOTH",
"-55 -205 OFFCURVE",
"-90 -233 OFFCURVE",
"-103 -236 CURVE SMOOTH",
"-111 -238 OFFCURVE",
"-114 -237 OFFCURVE",
"-130 -232 CURVE SMOOTH"
);
},
{
closed = 1;
nodes = (
"48 -222 LINE SMOOTH",
"23 -214 OFFCURVE",
"2 -204 OFFCURVE",
"-2 -198 CURVE SMOOTH",
"-12 -182 OFFCURVE",
"2 -170 OFFCURVE",
"22 -153 CURVE SMOOTH",
"38 -139 OFFCURVE",
"36 -135 OFFCURVE",
"54 -135 CURVE SMOOTH",
"72 -135 OFFCURVE",
"88 -140 OFFCURVE",
"116 -152 CURVE SMOOTH",
"141 -163 OFFCURVE",
"144 -163 OFFCURVE",
"151 -172 CURVE SMOOTH",
"157 -180 OFFCURVE",
"158 -181 OFFCURVE",
"157 -188 CURVE SMOOTH",
"155 -205 OFFCURVE",
"120 -233 OFFCURVE",
"107 -236 CURVE SMOOTH",
"99 -238 OFFCURVE",
"96 -237 OFFCURVE",
"80 -232 CURVE SMOOTH"
);
},
{
closed = 1;
nodes = (
"258 -222 LINE SMOOTH",
"233 -214 OFFCURVE",
"212 -204 OFFCURVE",
"208 -198 CURVE SMOOTH",
"198 -182 OFFCURVE",
"212 -170 OFFCURVE",
"232 -153 CURVE SMOOTH",
"248 -139 OFFCURVE",
"246 -135 OFFCURVE",
"264 -135 CURVE SMOOTH",
"282 -135 OFFCURVE",
"298 -140 OFFCURVE",
"326 -152 CURVE SMOOTH",
"351 -163 OFFCURVE",
"354 -163 OFFCURVE",
"361 -172 CURVE SMOOTH",
"367 -180 OFFCURVE",
"368 -181 OFFCURVE",
"367 -188 CURVE SMOOTH",
"365 -205 OFFCURVE",
"330 -233 OFFCURVE",
"317 -236 CURVE SMOOTH",
"309 -238 OFFCURVE",
"306 -237 OFFCURVE",
"290 -232 CURVE SMOOTH"
);
}
);
width = 0;
}
);
unicode = 005D;
},
{
glyphname = hyphen;
lastChange = "2019-02-20 04:52:23 +0000";
layers = (
{
layerId = "88CA81B2-7675-4395-A8ED-15857F341A98";
paths = (
{
closed = 1;
nodes = (
"522 169 OFFCURVE",
"514 188 OFFCURVE",
"559 224 CURVE SMOOTH",
"569 232 OFFCURVE",
"574 243 OFFCURVE",
"579 265 CURVE SMOOTH",
"587 300 OFFCURVE",
"590 316 OFFCURVE",
"598 331 CURVE SMOOTH",
"609 352 OFFCURVE",
"617 360 OFFCURVE",
"634 367 CURVE SMOOTH",
"648 373 OFFCURVE",
"649 373 OFFCURVE",
"678 373 CURVE SMOOTH",
"699 373 OFFCURVE",
"751 371 OFFCURVE",
"764 362 CURVE SMOOTH",
"773 356 OFFCURVE",
"770 345 OFFCURVE",
"755 326 CURVE SMOOTH",
"744 312 OFFCURVE",
"736 292 OFFCURVE",
"728 262 CURVE SMOOTH",
"718 226 OFFCURVE",
"713 205 OFFCURVE",
"688 186 CURVE SMOOTH",
"657 162 OFFCURVE",
"624 159 OFFCURVE",
"583 163 CURVE SMOOTH"
);
},
{
closed = 1;
nodes = (
"466 -85 OFFCURVE",
"366 -49 CURVE SMOOTH",
"206 8 OFFCURVE",
"109 54 OFFCURVE",
"71 94 CURVE SMOOTH",
"39 128 OFFCURVE",
"44 152 OFFCURVE",
"90 160 CURVE SMOOTH",
"131 167 OFFCURVE",
"334 163 OFFCURVE",
"364 138 CURVE SMOOTH",
"371 132 OFFCURVE",
"372 126 OFFCURVE",
"365 119 CURVE SMOOTH",
"363 117 OFFCURVE",
"357 117 OFFCURVE",
"332 115 CURVE SMOOTH",
"302 113 OFFCURVE",
"287 111 OFFCURVE",
"286 107 CURVE SMOOTH",
"276 67 OFFCURVE",
"437 -3 OFFCURVE",
"525 -27 CURVE SMOOTH",
"704 -72 OFFCURVE",
"958 -83 OFFCURVE",
"958 28 CURVE SMOOTH",
"958 68 OFFCURVE",
"934 100 OFFCURVE",
"890 122 CURVE SMOOTH",
"823 156 OFFCURVE",
"884 161 OFFCURVE",
"962 161 CURVE SMOOTH",
"1067 161 OFFCURVE",
"1155 135 OFFCURVE",
"1133 26 CURVE SMOOTH",
"1112 -79 OFFCURVE",
"950 -114 OFFCURVE",
"775 -111 CURVE SMOOTH",
"654 -111 OFFCURVE"
);
}
);
width = 1166;
}
);
unicode = 002D;
},
